<?xml version="1.0" encoding="utf-8"?>
<!-- Generator: Adobe Illustrator 20.1.0, SVG Export Plug-In . SVG Version: 6.00 Build 0)  -->
<svg version="1.1" id="Layer_1" xmlns="http://www.w3.org/2000/svg" xmlns:xlink="http://www.w3.org/1999/xlink" x="0px" y="0px"
	 viewBox="0 0 135 28.61" enable-background="new 0 0 135 28.61" xml:space="preserve">
<path fill="#0B2265" d="M46.337,11.71v11.409h-4.99v-9.829c0-2.357-1.128-3.586-3.034-3.586c-1.906,0-3.109,1.204-3.109,3.586v9.829
	h-4.99V5.491h3.937l1.053,2.507c1.153-1.479,2.633-2.833,5.165-2.833C44.131,5.165,46.337,7.673,46.337,11.71z M9.754,0L0,23.093
	h6.77L16.524,0H9.754z M19.558,5.215l-3.51,8.6h7.171L19.558,5.215z M17.652,17.803l2.232,5.291h7.272l-2.232-5.291H17.652z
	 M63.613,7.272c1.304,1.304,1.906,3.26,1.906,5.617v10.205h-4.012l-0.802-1.906c-1.204,1.354-2.884,2.232-5.316,2.232
	c-3.31,0-6.043-1.906-6.043-5.391v-0.075c0-3.836,2.934-5.617,7.096-5.617c1.78,0,3.059,0.301,4.313,0.727v-0.276
	c0-2.081-1.279-3.21-3.786-3.21c-1.78,0-3.084,0.326-4.538,0.853L50.876,6.72c1.931-0.853,3.836-1.404,6.82-1.404
	C60.404,5.291,62.385,6.018,63.613,7.272z M60.805,16.022c-0.853-0.401-1.981-0.652-3.184-0.652c-2.131,0-3.46,0.853-3.46,2.432
	v0.075c0,1.354,1.128,2.131,2.733,2.131c2.332,0,3.912-1.279,3.912-3.084V16.022z M87.86,14.267v0.075
	c0,5.867-3.836,9.102-8.024,9.102c-2.658,0-4.313-1.204-5.491-2.633v7.798h-4.99V5.491h3.912l1.078,2.533
	c1.204-1.63,2.884-2.858,5.491-2.858C83.949,5.165,87.86,8.4,87.86,14.267z M82.845,14.267c0-2.934-1.981-4.864-4.313-4.864
	c-2.332,0-4.263,1.931-4.263,4.864v0.075c0,2.934,1.931,4.864,4.263,4.864c2.332,0,4.313-1.906,4.313-4.864V14.267z M129.032,5.165
	c-2.533,0-4.012,1.354-5.165,2.833l-1.053-2.507h-3.937v17.602h4.99v-9.804c0-2.357,1.204-3.586,3.109-3.586
	s3.034,1.204,3.034,3.586v9.829H135V11.71C135,7.673,132.793,5.165,129.032,5.165z M113.135,7.272
	c1.304,1.304,1.906,3.26,1.906,5.617v10.205h-4.012l-0.802-1.906c-1.204,1.354-2.884,2.232-5.316,2.232
	c-3.31,0-6.043-1.906-6.043-5.391v-0.075c0-3.836,2.934-5.617,7.096-5.617c1.78,0,3.059,0.301,4.313,0.727v-0.276
	c0-2.081-1.279-3.21-3.786-3.21c-1.78,0-3.084,0.326-4.538,0.853l-1.555-3.711c1.931-0.853,3.836-1.404,6.82-1.404
	C109.926,5.291,111.907,6.018,113.135,7.272z M110.327,16.022c-0.853-0.401-1.981-0.652-3.184-0.652c-2.131,0-3.46,0.853-3.46,2.432
	v0.075c0,1.354,1.128,2.131,2.733,2.131c2.332,0,3.912-1.279,3.912-3.084V16.022z M90.869,23.093h4.99V0h-4.99V23.093z"/>
</svg>
