<svg xmlns="http://www.w3.org/2000/svg" viewBox="0 0 83.8 69.97"><defs><style>.cls-1{fill:#be2f26;fill-rule:evenodd;}.cls-2{fill:none;}.cls-2,.cls-3{stroke:#fff;stroke-miterlimit:10;}.cls-3{fill:#fff;}</style></defs><title>Asset 1@svg</title><g id="Layer_2" data-name="Layer 2"><g id="Layer_1-2" data-name="Layer 1"><path class="cls-1" d="M32,52.6c-6.53.07-12.8-1.44-18.94-3.45C7.8,47.43,4.62,40,6.7,34.75s6-8.37,10.64-10.88a84.32,84.32,0,0,1,15-6,6.81,6.81,0,0,1,2-.24q23.8,0,47.61,0c.57,0,1.2-.2,1.85.38-2.19,2.93-5.23,4.86-8.15,6.87A85,85,0,0,1,48.48,37c-3,.77-5.9-.72-8.79-1.45-4.32-1.08-8.21-3.2-12.17-5.37,1.37,4.46,4,8.2,6.45,12.05,1,3.07,3.6,5,5.63,7.3.28.32.77.45,1.09.77.56.57,1.42,1.06,1.06,2s-1.25.67-2,.66C37.18,53,34.58,52.81,32,52.6Z"/><path class="cls-1" d="M0,1A102.3,102.3,0,0,0,17.71.17l.67-.08c6.44-.59,9.2,1.65,9.8,8.14a75.2,75.2,0,0,0,1.2,9.15c.27,1.22-.33,1.56-1.23,2a55.46,55.46,0,0,0-12,7.5,18.75,18.75,0,0,0-5.48,7.32c-2,4.93-.56,9.24,2.53,13.22.64.83,1.3,1.65,2,2.5C7.55,48.38,1,38.75,1.57,30.23c.49-7.94,3.24-15.08,7.3-21.74,1.19-2,.51-2.5-1.06-3.29C5.17,3.85,2.6,2.37,0,1Z"/><path class="cls-1" d="M32,52.6c2.78,0,5.56,0,8.35-.06a1.41,1.41,0,0,0,1-.3c.35-.48-.12-1-.46-1.09-3-1-3.74-4.38-6.2-5.95-1.16-.74-1.1-1.84-.71-3C42.59,53.79,55.43,58.89,68,64.38c3.42,1.49,6.92,2.83,10.83,4.42a27.39,27.39,0,0,1-10.08,1.15c-5-.1-9.72-1.74-14.45-3.19a3.87,3.87,0,0,1-2.06-1.65c-2.32-3.41-4.77-6.74-7.07-10.16A3.23,3.23,0,0,0,42,53.3,43.06,43.06,0,0,1,32,52.6Z"/><line class="cls-2" x1="37.12" y1="27.38" x2="54.73" y2="35.31"/><line class="cls-3" x1="45.77" y1="21.52" x2="65.52" y2="30.79"/></g></g></svg>